<?xml version="1.0" encoding="iso-8859-1"?>
<!-- Generator: Adobe Illustrator 16.0.0, SVG Export Plug-In . SVG Version: 6.00 Build 0)  -->
<!DOCTYPE svg PUBLIC "-//W3C//DTD SVG 1.1//EN" "http://www.w3.org/Graphics/SVG/1.1/DTD/svg11.dtd">
<svg version="1.1" id="Capa_1" xmlns="http://www.w3.org/2000/svg" xmlns:xlink="http://www.w3.org/1999/xlink" x="0px" y="0px"
	 width="371.099px" height="371.099px" viewBox="0 0 371.099 371.099" style="enable-background:new 0 0 371.099 371.099;"
	 xml:space="preserve">
<g>
	<g>
		<path d="M366.081,148.201L221.317,3.45c-4.995-5.008-13.618-4.504-19.251,1.129L54.468,152.188l162.874,162.887L364.94,167.453
			C370.56,161.82,371.089,153.209,366.081,148.201z"/>
		<path d="M6.157,200.491c-5.633,5.621-6.137,14.25-1.132,19.252l144.751,144.764c1.703,1.705,3.879,2.533,6.173,2.978
			c2.534,2.216,5.81,3.615,9.452,3.615h174.955c7.963,0,14.424-6.468,14.424-14.43s-6.461-14.423-14.424-14.423h-150.2
			l13.592-13.596L40.873,165.783L6.157,200.491z"/>
	</g>
</g>
<g>
</g>
<g>
</g>
<g>
</g>
<g>
</g>
<g>
</g>
<g>
</g>
<g>
</g>
<g>
</g>
<g>
</g>
<g>
</g>
<g>
</g>
<g>
</g>
<g>
</g>
<g>
</g>
<g>
</g>
</svg>
