<?xml version="1.0" encoding="iso-8859-1"?>
<!-- Generator: Adobe Illustrator 19.0.0, SVG Export Plug-In . SVG Version: 6.00 Build 0)  -->
<svg version="1.1" id="Capa_1" xmlns="http://www.w3.org/2000/svg" xmlns:xlink="http://www.w3.org/1999/xlink" x="0px" y="0px"
	 viewBox="0 0 512 512" style="enable-background:new 0 0 512 512;" xml:space="preserve">
<g>
	<g>
		<path d="M438.978,223.391c-2.393,2.954-4.908,5.83-7.556,8.611c-26.813,28.16-62.935,43.93-101.71,44.406
			c-0.602,0.007-1.203,0.011-1.803,0.011c-28.849,0-56.357-8.499-79.75-24.353c-10.685,4.001-23.19,1.714-31.784-6.88
			c-11.728-11.728-11.728-30.743,0-42.472c11.728-11.728,30.743-11.728,42.471,0c7.07,7.07,9.871,16.789,8.417,25.963
			c18.355,11.786,39.737,17.968,62.081,17.701c30.615-0.375,59.142-12.836,80.328-35.085c2.837-2.979,5.468-6.087,7.907-9.3
			L315.421,99.835l46.676-46.93c12.3-12.299,32.312-12.299,44.612,0c40.488,40.488,44.384,104.969,10.871,149.09L438.978,223.391
			c20.995-25.919,32.08-58.23,31.396-92.173c-0.758-37.592-15.827-72.947-42.43-99.55c-24.008-24.009-63.074-24.009-87.082,0
			l-46.906,46.701L267.79,52.203L159.218,160.775c-13.905-5.752-28.963-8.762-44.097-8.762C51.643,152.012,0,203.656,0,267.133
			v90.094h30.031v-90.094c0-16.559,13.472-30.031,30.031-30.031c6.299,0,12.324,1.971,17.324,5.504l-11.523,11.523l244.211,244.21
			L512,296.414L438.978,223.391z M98.783,221.21c-10.703-9.029-24.359-14.14-38.72-14.14c-1.82,0-3.618,0.095-5.397,0.254
			c15.432-15.597,36.831-25.28,60.454-25.28c6.978,0,13.79,0.817,20.39,2.438L98.783,221.21z"/>
	</g>
</g>
<g>
</g>
<g>
</g>
<g>
</g>
<g>
</g>
<g>
</g>
<g>
</g>
<g>
</g>
<g>
</g>
<g>
</g>
<g>
</g>
<g>
</g>
<g>
</g>
<g>
</g>
<g>
</g>
<g>
</g>
</svg>
